<svg xmlns="http://www.w3.org/2000/svg" width="48" height="48" viewBox="0 0 48 48">
  <path id="Path_13" data-name="Path 13" d="M9,49H41V45h8V33a13.021,13.021,0,0,0-9.165-12.421A8.992,8.992,0,0,0,35,4a8.9,8.9,0,0,0-2.531.373,9.956,9.956,0,0,0-14.938,0A8.9,8.9,0,0,0,15,4a8.992,8.992,0,0,0-4.835,16.579A13.021,13.021,0,0,0,1,33V45H9Zm30-2H11V32c0-.334.021-.664.05-.991.01-.107.023-.213.035-.32.027-.226.062-.449.1-.67.021-.112.038-.225.062-.336.062-.287.135-.569.218-.848.042-.138.092-.272.139-.408q.081-.237.172-.469t.186-.443c.064-.143.134-.283.2-.423q.153-.306.324-.6c.1-.171.2-.342.308-.507.084-.128.174-.252.263-.377s.191-.262.291-.389.184-.233.281-.346c.126-.147.257-.289.39-.429s.249-.258.378-.382c.159-.152.32-.3.488-.444.11-.093.224-.182.338-.271.131-.1.263-.2.4-.3s.252-.179.383-.264.268-.165.4-.245q.382-.226.786-.423c.135-.066.268-.135.406-.2l.161-.072A10.948,10.948,0,0,1,22,21h6a10.922,10.922,0,0,1,4.231.849l.161.072c.138.06.271.13.406.2q.4.2.786.423c.136.08.272.159.4.245s.257.174.383.264.268.2.4.3c.114.089.228.178.338.271.168.142.329.292.488.444.13.124.255.252.378.382s.265.282.39.429c.1.113.189.229.281.346s.2.257.291.389.18.248.263.377c.108.165.209.336.308.507.114.2.222.4.324.6.07.14.14.28.2.423s.127.294.186.443.117.311.172.469c.047.136.1.271.139.408q.126.417.218.848c.024.111.042.224.062.336.04.221.076.445.1.67.013.106.026.213.035.32.03.326.051.656.051.99V47Zm8-14V43H41V32a13.041,13.041,0,0,0-.079-1.405c-.012-.109-.035-.215-.049-.323-.048-.357-.1-.712-.18-1.059-.025-.114-.059-.224-.087-.337-.084-.339-.177-.674-.287-1-.037-.111-.08-.219-.12-.328-.118-.323-.247-.641-.389-.951-.05-.109-.1-.217-.157-.324q-.223-.454-.481-.887c-.063-.106-.126-.212-.193-.317-.18-.283-.371-.557-.571-.825-.073-.1-.143-.2-.219-.293-.219-.277-.452-.542-.693-.8-.068-.073-.131-.15-.2-.221a12.943,12.943,0,0,0-.994-.923A11.012,11.012,0,0,1,47,33ZM33.723,6.121A6.845,6.845,0,0,1,35,6a7,7,0,1,1-3.826,12.856c.015-.011.027-.025.041-.037a10.043,10.043,0,0,0,2.2-2.438c.019-.03.036-.06.055-.09q.26-.414.478-.853c.024-.048.046-.1.069-.144q.2-.416.359-.852c.022-.06.045-.12.066-.18.1-.279.18-.564.252-.854.018-.072.039-.143.055-.215.064-.283.112-.571.151-.863.011-.077.027-.153.035-.231A9.483,9.483,0,0,0,35,11a10.005,10.005,0,0,0-.074-1.168c-.014-.122-.037-.242-.056-.364-.042-.268-.092-.533-.154-.794-.03-.127-.062-.253-.1-.378-.081-.289-.176-.572-.282-.849-.03-.077-.054-.156-.085-.232a9.941,9.941,0,0,0-.519-1.075A.118.118,0,0,1,33.723,6.121Zm-2.56-.216.061.079c.049.061.093.125.14.187a8.016,8.016,0,0,1,1.174,2.173c.018.05.038.1.055.15a7.937,7.937,0,0,1,.276,1.1c.014.078.025.158.036.237A8.109,8.109,0,0,1,33,11a7.859,7.859,0,0,1-.065.973c-.009.075-.023.149-.034.224a7.884,7.884,0,0,1-.159.784c-.014.054-.027.109-.042.163a8.03,8.03,0,0,1-.771,1.838l-.018.03a7.9,7.9,0,0,1-.535.8c-.018.023-.035.047-.053.071a8.018,8.018,0,0,1-1.414,1.42l-.095.071a8.057,8.057,0,0,1-.775.52c-.048.028-.093.059-.142.086l-.114.066a7.976,7.976,0,0,1-7.565,0L21.1,17.98c-.048-.027-.094-.058-.142-.086a8.057,8.057,0,0,1-.775-.52l-.095-.071a8.086,8.086,0,0,1-1.414-1.42c-.018-.023-.035-.047-.053-.071a8.074,8.074,0,0,1-.535-.8l-.018-.03a8.015,8.015,0,0,1-.772-1.839c-.015-.053-.028-.108-.042-.161A7.963,7.963,0,0,1,17.1,12.2c-.011-.075-.025-.148-.034-.224A7.857,7.857,0,0,1,17,11a8.083,8.083,0,0,1,.095-1.168c.012-.079.022-.158.036-.237a7.972,7.972,0,0,1,.276-1.1c.017-.051.037-.1.055-.15a8,8,0,0,1,1.174-2.173c.047-.062.091-.127.14-.187l.061-.079a7.989,7.989,0,0,1,12.326,0ZM8,13a7.008,7.008,0,0,1,7-7,6.845,6.845,0,0,1,1.277.121l-.009.019a10.024,10.024,0,0,0-.519,1.074c-.032.077-.056.156-.086.234-.106.277-.2.56-.282.848-.035.125-.067.251-.1.378-.062.261-.112.526-.154.794-.019.121-.041.241-.056.364a9.365,9.365,0,0,0-.01,2.268c.009.078.025.153.035.23.039.292.088.581.151.864.016.072.037.142.055.213.072.29.155.576.252.856.021.061.044.12.066.181q.161.435.359.851c.023.048.046.1.07.145q.219.44.478.853c.019.03.036.06.055.09a10.082,10.082,0,0,0,2.2,2.438l.041.037A6.995,6.995,0,0,1,8,13ZM3,43V33A11.014,11.014,0,0,1,13.7,22a13.145,13.145,0,0,0-.994.923c-.07.071-.133.148-.2.221-.241.258-.474.523-.694.8-.075.095-.145.194-.218.292-.2.268-.392.542-.572.826-.066.1-.129.21-.193.317q-.258.433-.481.887c-.053.108-.106.215-.157.324-.143.31-.271.628-.389.951-.04.11-.083.217-.12.328-.11.329-.2.664-.288,1-.028.112-.061.222-.086.335-.076.348-.132.7-.18,1.061-.015.108-.037.213-.049.322A13.008,13.008,0,0,0,9,32V43Z" transform="translate(-1 -1)" fill="#fff"/>
</svg>
